<svg width="24" height="24" viewBox="0 0 24 24">
  <g fill="none" fill-rule="evenodd" stroke="#000" transform="translate(1 1)">
    <path d="M11,18.3333333 C15.0500882,18.3333333 18.3333333,15.0500882 18.3333333,11 C18.3333333,6.94991183 15.0500882,3.66666667 11,3.66666667 C6.94991183,3.66666667 3.66666667,6.94991183 3.66666667,11" transform="rotate(-135 11 11)"/>
    <path d="M13.9781389,7.98705039 C13.7454153,9.02790382 12.9548233,12.5918316 12.9548233,13.2211039 C12.9548233,13.8503762 13.2222049,14.4349689 14.0911602,14.5965671 C14.9601155,14.7581652 16.2970234,14.377484 17.1718246,12.0842102 C18.0466259,9.79093651 17.8486049,7.09475257 15.9024233,5.55973789"/>
    <path d="M13.4763379,10.226453 C13.6459959,8.85180841 12.3524356,7.46181056 11,7.60983881 C9.64756444,7.75786707 8.56794788,8.34527352 7.86198258,10.7281848 C7.15601727,13.1110961 8.63621413,14.3369801 9.49278166,14.5816739 C10.3493492,14.8263677 12.1851184,14.5372705 13.0219211,12.634978"/>
  </g>
</svg>
