<svg xmlns:xlink="http://www.w3.org/1999/xlink" width="24" height="24" viewBox="0 0 24 24">
  <defs>
    <path id="notifications-a" d="M14.537586,4.25557295 L14.537586,3.91393967 C14.537586,2.80166931 13.6421555,1.91393967 12.537586,1.91393967 C11.4253157,1.91393967 10.537586,2.80937017 10.537586,3.91393967 L10.537586,4.25647144 C8.21011733,5.08132563 6.53758601,7.30426489 6.53758601,9.91706999 L6.53758601,10.916548 C6.53758601,12.0180819 6.36192209,13.7922593 6.14522966,14.8757214 L5.73515383,16.9261006 C5.62632934,17.470223 5.98836608,17.9139397 6.54443149,17.9139397 L18.5307405,17.9139397 C19.0876373,17.9139397 19.4491319,17.471669 19.3400182,16.9261006 L18.9299424,14.8757214 C18.7117727,13.7848732 18.537586,12.0196769 18.537586,10.916548 L18.537586,9.91706999 C18.537586,7.30359493 16.8679708,5.07976954 14.537586,4.25557295 Z"/>
    <mask id="notifications-c" width="13.644" height="16" x="0" y="0" fill="#fff">
      <use xlink:href="#notifications-a"/>
    </mask>
    <path id="notifications-b" d="M9,17.1008394 L13,17.1008394 L13,18.6008394 C13,19.4292665 12.3214545,20.1008394 11.4991673,20.1008394 L10.5008327,20.1008394 C9.6719457,20.1008394 9,19.4350422 9,18.6008394 L9,17.1008394 Z"/>
    <mask id="notifications-d" width="4" height="3" x="0" y="0" fill="#fff">
      <use xlink:href="#notifications-b"/>
    </mask>
  </defs>
  <g fill="none" fill-rule="evenodd" stroke="#000" stroke-width="2">
    <use mask="url(#notifications-c)" transform="rotate(12 12.538 9.914)" xlink:href="#notifications-a"/>
    <use mask="url(#notifications-d)" transform="rotate(6 11 18.6)" xlink:href="#notifications-b"/>
  </g>
</svg>
