<svg xmlns:xlink="http://www.w3.org/1999/xlink" width="24" height="24" viewBox="0 0 24 24">
  <defs>
    <rect id="undefined-a" width="24" height="24"/>
    <mask id="undefined-b" width="24" height="24" x="0" y="0" fill="#fff">
      <use xlink:href="#undefined-a"/>
    </mask>
  </defs>
  <g fill="none" fill-rule="evenodd">
    <use stroke="#000" stroke-width="2" mask="url(#undefined-b)" xlink:href="#undefined-a"/>
    <rect width="2" height="2" x="1" y="1" fill="#F00"/>
    <rect width="2" height="2" x="3" y="1" fill="#0F0"/>
    <rect width="2" height="2" x="5" y="1" fill="#00F"/>
    <rect width="2" height="2" x="7" y="1" fill="#FFF"/>
    <rect width="2" height="2" x="9" y="1" fill="#000"/>
    <rect width="8" height="8" x="8" y="8" fill="#000"/>
    <rect width="2.667" height="2.667" x="18.667" y="10.667" fill="#000"/>
    <path fill="#414141" d="M21.849625,21.3662605 C21.8372208,21.3731092 21.8248458,21.3799286 21.8125,21.3867188 C21.682291,21.4583337 21.5488288,21.5299476 21.4121094,21.6015625 C21.3795571,21.6145834 21.3535157,21.6243489 21.3339844,21.6308594 C21.314453,21.6373698 21.2884116,21.6471354 21.2558594,21.6601562 C21.2233071,21.6731771 21.1875002,21.6861979 21.1484375,21.6992188 C21.1158853,21.7057292 21.0800783,21.7154947 21.0410156,21.7285156 C20.9498693,21.748047 20.8587244,21.7610677 20.7675781,21.7675781 C20.6764318,21.780599 20.5885421,21.7871094 20.5039062,21.7871094 L20.484375,21.7871094 C20.3802078,21.7805989 20.2792974,21.7675782 20.1816406,21.7480469 C20.0839839,21.7285155 19.9863286,21.6992189 19.8886719,21.6601562 L19.7519531,21.6015625 C19.70638,21.5820312 19.6640627,21.5592449 19.625,21.5332031 C19.5924478,21.5136718 19.5631512,21.4941407 19.5371094,21.4746094 L19.4589844,21.4160156 C19.2766918,21.2597648 19.1269537,21.077475 19.0097656,20.8691406 C18.8925775,20.6542958 18.8177085,20.4329438 18.7851562,20.2050781 C18.7786458,20.1660154 18.7753906,20.1302085 18.7753906,20.0976562 L18.7753906,19.9902344 C18.7753906,19.9381508 18.7786458,19.8893231 18.7851562,19.84375 C18.7916667,19.7916664 18.8014322,19.7428388 18.8144531,19.6972656 C18.8600263,19.514973 18.9218746,19.3587246 19,19.2285156 C19.0781254,19.0917962 19.1399737,18.9908857 19.1855469,18.9257812 C19.23112,18.8541663 19.2799477,18.7858076 19.3320312,18.7207031 C19.3841148,18.6621091 19.4394528,18.6035159 19.4980469,18.5449219 L19.5566406,18.4863281 C19.5696615,18.4733072 19.5891926,18.4570313 19.6152344,18.4375 C19.6412762,18.4179687 19.6673176,18.4016928 19.6933594,18.3886719 L19.7714844,18.3300781 C19.9277352,18.2519527 20.0709629,18.1966147 20.2011719,18.1640625 C20.3313809,18.1315103 20.4290361,18.1119792 20.4941406,18.1054688 C20.5201824,18.0989583 20.5462238,18.0957031 20.5722656,18.0957031 L20.640625,18.0957031 C20.7317713,18.1022136 20.819661,18.1152343 20.9042969,18.1347656 C20.9954432,18.1608074 21.0833329,18.1868488 21.1679688,18.2128906 L21.3632812,18.2910156 C21.4283857,18.3170574 21.4902341,18.3496092 21.5488281,18.3886719 C21.5944013,18.4212241 21.6334634,18.4570311 21.6660156,18.4960938 C21.6848055,18.5148837 21.7028421,18.5336734 21.7201255,18.5524632 C21.7166043,18.3815593 21.7148438,18.2097751 21.7148438,18.0371094 C21.7148438,17.5748675 21.7246093,17.1158877 21.7441406,16.6601562 C21.7571615,16.1979144 21.7799478,15.7356794 21.8125,15.2734375 C21.8125,15.2408853 21.8190104,15.2115887 21.8320312,15.1855469 C21.8450521,15.1529946 21.861328,15.123698 21.8808594,15.0976562 C21.9003907,15.0781249 21.9264321,15.0585938 21.9589844,15.0390625 C21.9850262,15.0260416 22.0143228,15.0162761 22.046875,15.0097656 C22.0664063,15.0032552 22.0891926,15 22.1152344,15 L22.1347656,15 C22.1673179,15 22.1966145,15.0065104 22.2226562,15.0195312 C22.2552085,15.0325521 22.2845051,15.048828 22.3105469,15.0683594 C22.3300782,15.0878907 22.3496093,15.110677 22.3691406,15.1367188 C22.3821615,15.169271 22.3951822,15.1985676 22.4082031,15.2246094 C22.4147136,15.2571616 22.4147136,15.2897134 22.4082031,15.3222656 C22.3821613,15.7779971 22.3593751,16.2304665 22.3398438,16.6796875 C22.3203124,17.1354189 22.3105469,17.5911436 22.3105469,18.046875 C22.3170573,18.365887 22.3235677,18.6881494 22.3300781,19.0136719 C22.3365886,19.3391943 22.3463541,19.6647119 22.359375,19.9902344 L22.3789062,20.3027344 C22.3844602,20.3971515 22.3900141,20.4891985 22.395568,20.5788774 C22.3997932,20.6008161 22.404005,20.6227007 22.4082031,20.6445312 L22.4082031,20.6835938 C22.4147136,20.7031251 22.4147136,20.7226562 22.4082031,20.7421875 C22.4074564,20.745921 22.4066669,20.7496117 22.4058346,20.7532595 C22.4116544,20.8424897 22.4189543,20.9331996 22.4277344,21.0253906 C22.4342448,21.1555996 22.4440104,21.2858066 22.4570312,21.4160156 L22.4570312,21.4355469 C22.4570312,21.4615887 22.4537761,21.4876301 22.4472656,21.5136719 C22.4407552,21.5397137 22.4277345,21.5690103 22.4082031,21.6015625 C22.3951822,21.6276043 22.3756512,21.6503905 22.3496094,21.6699219 C22.3235676,21.6894532 22.2975262,21.7057291 22.2714844,21.71875 C22.2389321,21.7317709 22.2096355,21.7382812 22.1835938,21.7382812 L22.1542969,21.7382812 C22.1347655,21.7382812 22.1119793,21.7350261 22.0859375,21.7285156 C22.0533853,21.7220052 22.0240887,21.7122396 21.9980469,21.6992188 C21.9720051,21.6796874 21.9492188,21.6601563 21.9296875,21.640625 C21.9101562,21.6145832 21.8938803,21.5852866 21.8808594,21.5527344 C21.8678385,21.5266926 21.8580729,21.497396 21.8515625,21.4648438 C21.8515625,21.430045 21.8509167,21.397184 21.849625,21.3662605 Z M21.8009324,20.7089088 C21.7976481,20.6761145 21.7949936,20.6546553 21.7929688,20.6445312 C21.7929688,20.6373747 21.7924968,20.6215651 21.7915528,20.5971021 C21.760547,20.4382048 21.7317223,20.2814895 21.7050781,20.1269531 C21.6660154,19.9316396 21.6171878,19.7395843 21.5585938,19.5507812 C21.5260415,19.4531245 21.4902346,19.3554692 21.4511719,19.2578125 C21.4121092,19.1666662 21.3632815,19.0755213 21.3046875,18.984375 C21.2916666,18.9713541 21.2753907,18.951823 21.2558594,18.9257812 C21.2428385,18.9062499 21.2233074,18.889974 21.1972656,18.8769531 C21.1907552,18.8704427 21.1809896,18.8671875 21.1679688,18.8671875 C21.1614583,18.8606771 21.1516928,18.8541667 21.1386719,18.8476562 C21.0996092,18.8346354 21.0735678,18.8248698 21.0605469,18.8183594 C21.0540364,18.8118489 21.0247398,18.7988282 20.9726562,18.7792969 L20.8359375,18.7402344 C20.7838539,18.7272135 20.7317711,18.7174479 20.6796875,18.7109375 C20.6536457,18.7044271 20.6243491,18.7011719 20.5917969,18.7011719 L20.5820312,18.7011719 C20.5559895,18.7011719 20.529948,18.7044271 20.5039062,18.7109375 C20.4257809,18.7239584 20.354167,18.7402343 20.2890625,18.7597656 C20.2174476,18.7858074 20.1490889,18.815104 20.0839844,18.8476562 C20.0709635,18.8541667 20.0546876,18.8639322 20.0351562,18.8769531 C20.0221354,18.8834636 20.0091146,18.8932291 19.9960938,18.90625 C19.9830729,18.9127604 19.9700521,18.922526 19.9570312,18.9355469 L19.9277344,18.9648438 C19.8821612,19.0104169 19.8398439,19.0559894 19.8007812,19.1015625 C19.7617186,19.1471356 19.7226564,19.1959633 19.6835938,19.2480469 C19.5989579,19.3847663 19.5338544,19.4954423 19.4882812,19.5800781 C19.4492186,19.6712244 19.419922,19.7526038 19.4003906,19.8242188 C19.3938802,19.856771 19.3873698,19.8860676 19.3808594,19.9121094 C19.3743489,19.9446616 19.3710938,19.9739582 19.3710938,20 L19.3710938,20.0585938 C19.3710938,20.0781251 19.3743489,20.0976562 19.3808594,20.1171875 C19.3873698,20.1692711 19.3971354,20.2213539 19.4101562,20.2734375 C19.4231771,20.3190106 19.439453,20.3645831 19.4589844,20.4101562 C19.4980471,20.4947921 19.5403644,20.5761715 19.5859375,20.6542969 C19.6315106,20.7324223 19.6868486,20.8040361 19.7519531,20.8691406 C19.764974,20.888672 19.7779947,20.9016927 19.7910156,20.9082031 C19.7975261,20.9147136 19.8105468,20.9244791 19.8300781,20.9375 L19.8691406,20.9765625 C19.888672,20.9895834 19.9049479,21.0026041 19.9179688,21.015625 C19.950521,21.0286459 19.9798176,21.0416666 20.0058594,21.0546875 C20.0384116,21.0742188 20.0709634,21.0904947 20.1035156,21.1035156 C20.1621097,21.123047 20.223958,21.142578 20.2890625,21.1621094 C20.354167,21.1751303 20.4192705,21.1816406 20.484375,21.1816406 L20.5039062,21.1816406 C20.5690107,21.1816406 20.6308591,21.1783854 20.6894531,21.171875 C20.7610681,21.1653646 20.8294268,21.155599 20.8945312,21.1425781 L20.9726562,21.1230469 C20.9921876,21.1165364 21.0149738,21.1100261 21.0410156,21.1035156 C21.060547,21.0970052 21.0768229,21.0904948 21.0898438,21.0839844 C21.1093751,21.0774739 21.1289062,21.0677084 21.1484375,21.0546875 L21.3828125,20.9375 C21.4609379,20.8984373 21.5390621,20.85612 21.6171875,20.8105469 L21.7148438,20.7519531 L21.8009324,20.7089088 Z M12.8922135,19.1919518 L12.8867188,18.9941406 C12.8802083,18.7597645 12.8704428,18.5253918 12.8574219,18.2910156 C12.8574219,18.2649738 12.8509115,18.2356772 12.8378906,18.203125 C12.8248697,18.1705728 12.8085938,18.1445313 12.7890625,18.125 C12.7760416,18.0989582 12.7532554,18.076172 12.7207031,18.0566406 C12.6946613,18.0371093 12.6686199,18.0240886 12.6425781,18.0175781 C12.6165363,18.0110677 12.5872397,18.0078125 12.5546875,18.0078125 L12.5449219,18.0078125 C12.5123696,18.0078125 12.483073,18.0143229 12.4570313,18.0273438 C12.424479,18.0403646 12.3951824,18.0566405 12.3691406,18.0761719 C12.3430988,18.0957032 12.3235678,18.1184895 12.3105469,18.1445312 C12.2910155,18.170573 12.2779948,18.1998696 12.2714844,18.2324219 C12.2649739,18.2584637 12.2617188,18.2845051 12.2617188,18.3105469 L12.2617188,18.3203125 C12.2682292,18.5546887 12.2779947,18.7890613 12.2910156,19.0234375 C12.2975261,19.2513032 12.3040364,19.4824207 12.3105469,19.7167969 C12.3170573,19.8795581 12.3203125,20.0390617 12.3203125,20.1953125 L12.3203125,20.6738281 L12.3007813,21.0058594 L12.28125,21.3867188 C12.28125,21.419271 12.2845052,21.4518228 12.2910156,21.484375 C12.2975261,21.5104168 12.3105468,21.5364582 12.3300781,21.5625 C12.343099,21.5885418 12.3626301,21.6145832 12.3886719,21.640625 C12.4147137,21.6601563 12.4407551,21.6764322 12.4667969,21.6894531 L12.5644531,21.7089844 L12.5839844,21.7089844 C12.6100262,21.7089844 12.6328124,21.7057292 12.6523438,21.6992188 C12.684896,21.6927083 12.7141926,21.6796876 12.7402344,21.6601562 C12.7662762,21.6406249 12.7890624,21.6210938 12.8085938,21.6015625 C12.8346355,21.5755207 12.8509114,21.5494793 12.8574219,21.5234375 C12.8704428,21.4908853 12.8802083,21.4583335 12.8867188,21.4257812 C12.8867188,21.3606768 12.8899739,21.2923181 12.8964844,21.2207031 C12.8964844,21.1490882 12.8997396,21.0807295 12.90625,21.015625 L12.90625,20.8496094 C12.9115253,20.802132 12.9146633,20.7567924 12.9156641,20.7135897 C12.9157818,20.713357 12.915899,20.7131239 12.9160156,20.7128906 C12.9290365,20.6803384 12.9388021,20.6510418 12.9453125,20.625 C12.9713543,20.5273433 12.9876302,20.4589846 12.9941406,20.4199219 C13.0006511,20.3743487 13.016927,20.3157556 13.0429688,20.2441406 C13.0820314,20.1204421 13.1308591,20.0000006 13.1894531,19.8828125 C13.2415367,19.7721349 13.3033851,19.6614589 13.375,19.5507812 C13.4531254,19.4401036 13.5345048,19.3326828 13.6191406,19.2285156 C13.7102869,19.1243484 13.8079422,19.0266932 13.9121094,18.9355469 L14.0292969,18.8574219 C14.0683596,18.8313801 14.1074217,18.8085938 14.1464844,18.7890625 C14.1660157,18.7825521 14.188802,18.7760417 14.2148438,18.7695312 C14.2343751,18.7630208 14.2571613,18.7597656 14.2832031,18.7597656 C14.3092449,18.7597656 14.3352863,18.7630208 14.3613281,18.7695312 C14.3873699,18.7760417 14.4101562,18.7825521 14.4296875,18.7890625 L14.4492188,18.8085938 C14.4557292,18.8151042 14.4622396,18.8183594 14.46875,18.8183594 C14.5013022,18.8509116 14.5305988,18.8834634 14.5566406,18.9160156 C14.5826824,18.9550783 14.6054687,18.9908853 14.625,19.0234375 C14.6315104,19.0429688 14.641276,19.0592447 14.6542969,19.0722656 L14.6738281,19.1308594 C14.6933595,19.1764325 14.7063802,19.2285153 14.7128906,19.2871094 C14.7194011,19.339193 14.7291666,19.4531241 14.7421875,19.6289062 C14.7486979,19.7330734 14.7519531,19.8372391 14.7519531,19.9414062 L14.7519531,20.2539062 C14.7454427,20.3645839 14.7421875,20.4720047 14.7421875,20.5761719 C14.7356771,20.6803391 14.7291667,20.7877599 14.7226563,20.8984375 L14.703125,21.1425781 L14.6835938,21.4355469 C14.6770833,21.4615887 14.6803385,21.4908853 14.6933594,21.5234375 C14.6998698,21.5559897 14.7096354,21.5852863 14.7226563,21.6113281 C14.7421876,21.6373699 14.7617187,21.6601562 14.78125,21.6796875 C14.8072918,21.6992188 14.8365884,21.7154947 14.8691406,21.7285156 C14.8951824,21.7415365 14.924479,21.7480469 14.9570313,21.7480469 C14.9635417,21.7545573 14.9700521,21.7578125 14.9765625,21.7578125 C15.0026043,21.7578125 15.0286457,21.7545573 15.0546875,21.7480469 C15.0807293,21.7415364 15.1067707,21.7285157 15.1328125,21.7089844 C15.1653647,21.689453 15.1914062,21.669922 15.2109375,21.6503906 C15.2304688,21.6243488 15.2467447,21.5983074 15.2597656,21.5722656 C15.2727865,21.5397134 15.2792969,21.5071616 15.2792969,21.4746094 C15.2858073,21.4225258 15.2890625,21.3736981 15.2890625,21.328125 C15.2955729,21.2760414 15.2988281,21.2239586 15.2988281,21.171875 C15.3053386,21.1328123 15.3085938,21.0937502 15.3085938,21.0546875 C15.3151042,21.0156248 15.3183594,20.9765627 15.3183594,20.9375 C15.3248698,20.8203119 15.3313802,20.7063808 15.3378906,20.5957031 L15.3574219,20.2636719 L15.3574219,19.921875 C15.3509114,19.8111974 15.3444011,19.6972662 15.3378906,19.5800781 C15.3313802,19.4759109 15.3216146,19.365235 15.3085938,19.2480469 C15.2955729,19.1308588 15.2695314,19.0169276 15.2304688,18.90625 C15.2174479,18.8736978 15.2044271,18.8444012 15.1914063,18.8183594 C15.1783854,18.7858071 15.1653646,18.7565105 15.1523438,18.7304688 C15.126302,18.6848956 15.1002605,18.6425783 15.0742188,18.6035156 C15.048177,18.5644529 15.0188804,18.5253908 14.9863281,18.4863281 L14.9082031,18.4082031 C14.8821613,18.3821613 14.8561199,18.3593751 14.8300781,18.3398438 C14.7779945,18.3007811 14.7226565,18.2682293 14.6640625,18.2421875 C14.6054685,18.2161457 14.5436201,18.1966146 14.4785156,18.1835938 C14.4654947,18.1770833 14.4492188,18.1738281 14.4296875,18.1738281 C14.4101562,18.1673177 14.3906251,18.1640625 14.3710938,18.1640625 L14.3222656,18.1640625 C14.2246089,18.1640625 14.1236984,18.1770832 14.0195313,18.203125 C13.8893223,18.2291668 13.7233083,18.3235669 13.5214844,18.4863281 C13.4368485,18.5579431 13.3554691,18.6328121 13.2773438,18.7109375 C13.2057288,18.7890629 13.1341149,18.8736975 13.0625,18.9648438 C13.0169269,19.0169273 12.9811199,19.0592446 12.9550781,19.0917969 C12.940943,19.1200671 12.9199882,19.1534519 12.8922135,19.1919518 Z M8.66746945,18.2128909 C8.67448868,18.2910156 8.68116553,18.3691404 8.6875,18.4472656 C8.70703135,18.6881522 8.7265624,18.9257801 8.74609375,19.1601562 C8.7526042,19.3684906 8.75911455,19.5735667 8.765625,19.7753906 L8.765625,20.390625 L8.75585938,20.8789062 L8.73632813,21.4355469 C8.73632813,21.4680991 8.7395833,21.5006509 8.74609375,21.5332031 C8.7526042,21.5657554 8.7656249,21.595052 8.78515625,21.6210938 C8.79817715,21.6471355 8.8177082,21.6699218 8.84375,21.6894531 C8.8697918,21.7089845 8.89908838,21.7252604 8.93164063,21.7382812 C8.95768242,21.7447917 8.986979,21.7513021 9.01953125,21.7578125 L9.0390625,21.7578125 C9.0651043,21.7578125 9.08789053,21.7545573 9.10742188,21.7480469 C9.13997412,21.735026 9.1692707,21.7220053 9.1953125,21.7089844 C9.2213543,21.689453 9.24414053,21.6666668 9.26367188,21.640625 C9.28320322,21.6210937 9.2994791,21.5950522 9.3125,21.5625 C9.3255209,21.5299478 9.33203125,21.497396 9.33203125,21.4648438 C9.3385417,21.367187 9.34179688,21.2662766 9.34179688,21.1621094 C9.34830732,21.0579422 9.35481768,20.9570317 9.36132813,20.859375 L9.36132813,20.625 C9.36132813,20.5468746 9.3645833,20.4687504 9.37109375,20.390625 C9.37109375,20.1757802 9.36783857,19.9641937 9.36132813,19.7558594 C9.35481768,19.547525 9.34830732,19.3359386 9.34179688,19.1210938 C9.32877598,18.8802071 9.30924492,18.6360689 9.28320313,18.3886719 C9.27846778,18.3302693 9.27354111,18.2716756 9.2684231,18.2128906 L9.34179688,18.2128906 C9.52408945,18.2063802 9.7063793,18.203125 9.88867188,18.203125 L10.4355469,18.203125 C10.4680991,18.203125 10.4973957,18.1966146 10.5234375,18.1835938 C10.5559897,18.1770833 10.5852863,18.1640626 10.6113281,18.1445312 C10.6373699,18.1249999 10.6601562,18.1022137 10.6796875,18.0761719 C10.6992188,18.0501301 10.7122396,18.0240887 10.71875,17.9980469 C10.7317709,17.9654946 10.7382813,17.9329429 10.7382813,17.9003906 C10.7382813,17.8678384 10.7317709,17.8385418 10.71875,17.8125 C10.7122396,17.7799478 10.6992188,17.7506512 10.6796875,17.7246094 C10.6601562,17.6985676 10.6373699,17.6757813 10.6113281,17.65625 C10.5852863,17.6432291 10.5559897,17.6302084 10.5234375,17.6171875 C10.4973957,17.6041666 10.4680991,17.5976562 10.4355469,17.5976562 C10.2532543,17.6041667 10.0677093,17.6074219 9.87890625,17.6074219 L9.33203125,17.6074219 C9.29116134,17.6096924 9.25068756,17.611567 9.21060978,17.6130457 C9.19834904,17.4913793 9.18348444,17.3723181 9.16601563,17.2558594 C9.15299473,17.1191399 9.13671885,16.9824226 9.1171875,16.8457031 C9.11067705,16.7805986 9.10742188,16.7154951 9.10742188,16.6503906 C9.10742188,16.5852861 9.11393223,16.5234378 9.12695313,16.4648438 L9.14648438,16.40625 C9.15299482,16.3867187 9.15950518,16.3704428 9.16601563,16.3574219 C9.17252607,16.3378905 9.1822916,16.3183595 9.1953125,16.2988281 C9.20182295,16.2792968 9.21158848,16.2597657 9.22460938,16.2402344 C9.23763027,16.220703 9.2473958,16.2044271 9.25390625,16.1914062 C9.2604167,16.1848958 9.27018223,16.1718751 9.28320313,16.1523438 C9.30924492,16.1132811 9.3385415,16.0774741 9.37109375,16.0449219 C9.39713555,16.0123696 9.4296873,15.983073 9.46875,15.9570312 L9.45898438,15.9570312 L9.46875,15.9570312 C9.46875,15.9505208 9.47200518,15.9472656 9.47851563,15.9472656 L9.51757813,15.9472656 C9.54361992,15.9472656 9.56640615,15.9505208 9.5859375,15.9570312 C9.60546885,15.9570312 9.6249999,15.9602864 9.64453125,15.9667969 C9.71614619,15.9863282 9.78450488,16.0123696 9.84960938,16.0449219 L10.0449219,16.1425781 C10.090495,16.1686199 10.1360675,16.1979165 10.1816406,16.2304688 C10.2272138,16.263021 10.2695311,16.2988279 10.3085938,16.3378906 L10.3183594,16.3574219 C10.3248698,16.3639323 10.3313802,16.3736979 10.3378906,16.3867188 L10.3964844,16.4648438 C10.4225262,16.4843751 10.4485676,16.500651 10.4746094,16.5136719 C10.5006512,16.5266928 10.5299478,16.5364583 10.5625,16.5429688 C10.5950522,16.5494792 10.627604,16.5494792 10.6601563,16.5429688 C10.6927085,16.5364583 10.7220051,16.5266928 10.7480469,16.5136719 L10.8261719,16.4550781 C10.8457032,16.4290363 10.8619791,16.4029949 10.875,16.3769531 C10.8880209,16.3444009 10.8977864,16.3151043 10.9042969,16.2890625 L10.9042969,16.1914062 C10.8977864,16.158854 10.8847657,16.1295574 10.8652344,16.1035156 C10.845703,16.0709634 10.826172,16.0416668 10.8066406,16.015625 C10.7871093,15.9830728 10.7675782,15.9537762 10.7480469,15.9277344 C10.6894528,15.8691403 10.6276045,15.8138023 10.5625,15.7617188 C10.4973955,15.7161456 10.4290368,15.6705731 10.3574219,15.625 C10.2662756,15.5794269 10.1783858,15.5371096 10.09375,15.4980469 C10.0026037,15.4589842 9.90820361,15.4231772 9.81054688,15.390625 C9.69986924,15.3645832 9.58593809,15.3515625 9.46875,15.3515625 C9.35156191,15.3515625 9.24414111,15.3841143 9.14648438,15.4492188 C9.10091123,15.4752605 9.05859395,15.5045571 9.01953125,15.5371094 C8.986979,15.5761721 8.95442725,15.611979 8.921875,15.6445312 L8.8046875,15.78125 C8.77213525,15.8268231 8.74283867,15.8756508 8.71679688,15.9277344 C8.69726553,15.9537762 8.68098965,15.9830728 8.66796875,16.015625 C8.6484374,16.0416668 8.63216152,16.0709634 8.61914063,16.1035156 L8.58007813,16.2011719 C8.56705723,16.2402346 8.5572917,16.2760415 8.55078125,16.3085938 C8.518229,16.4453132 8.50195313,16.5820306 8.50195313,16.71875 C8.50195313,16.8164067 8.51171865,16.9173172 8.53125,17.0214844 C8.55811298,17.225643 8.58275886,17.4209321 8.60518812,17.6073554 C8.45172867,17.6068627 8.375,17.6036297 8.375,17.5976562 L8.0625,17.5878906 L8.05273438,17.5878906 C8.02018213,17.5878906 7.99088555,17.5911458 7.96484375,17.5976562 C7.9322915,17.6041667 7.90299492,17.6171874 7.87695313,17.6367188 C7.85091133,17.6562501 7.8281251,17.6757812 7.80859375,17.6953125 C7.7890624,17.7213543 7.77278652,17.7506509 7.75976563,17.7832031 C7.75325518,17.8092449 7.74674482,17.8385415 7.74023438,17.8710938 L7.74023438,17.890625 C7.74023438,17.9166668 7.74348955,17.9427082 7.75,17.96875 L7.7890625,18.046875 C7.80859385,18.0794272 7.83138008,18.1054687 7.85742188,18.125 C7.87695322,18.1445313 7.90299463,18.1575521 7.93554688,18.1640625 C7.96809912,18.1770834 7.9973957,18.1835938 8.0234375,18.1835938 C8.08203154,18.1901042 8.14062471,18.1933594 8.19921875,18.1933594 C8.25781279,18.1998698 8.31640596,18.203125 8.375,18.203125 L8.50195313,18.203125 C8.54752627,18.2096354 8.59309873,18.2128906 8.63867188,18.2128906 L8.66746945,18.2128906 Z M11.2851563,18.4179688 C11.2851563,18.3854165 11.2916666,18.3561199 11.3046875,18.3300781 C11.3177084,18.2975259 11.3339843,18.2682293 11.3535156,18.2421875 C11.373047,18.2226562 11.3958332,18.2031251 11.421875,18.1835938 C11.4479168,18.1640624 11.4772134,18.1510417 11.5097656,18.1445312 C11.529297,18.1380208 11.5520832,18.1347656 11.578125,18.1347656 L11.5976563,18.1347656 L11.6953125,18.1542969 C11.7213543,18.1673178 11.7473957,18.1835937 11.7734375,18.203125 C11.7994793,18.2291668 11.8190104,18.2552082 11.8320313,18.28125 C11.8515626,18.3072918 11.8645833,18.3365884 11.8710938,18.3691406 C11.8776042,18.388672 11.8808594,18.4114582 11.8808594,18.4375 L11.8808594,18.4570312 L11.8613281,18.7988281 L11.8417969,19.1015625 C11.8417969,19.2578133 11.8385417,19.4140617 11.8320313,19.5703125 L11.8320313,20.7226562 C11.8385417,20.9440115 11.8417969,21.1686187 11.8417969,21.3964844 C11.8483073,21.4290366 11.8450521,21.4615884 11.8320313,21.4941406 C11.8255208,21.5201824 11.8125001,21.5462238 11.7929688,21.5722656 C11.7799479,21.5983074 11.7604168,21.6210937 11.734375,21.640625 C11.7083332,21.6601563 11.6790366,21.6764322 11.6464844,21.6894531 C11.6204426,21.702474 11.591146,21.7089844 11.5585938,21.7089844 L11.5488281,21.7089844 C11.5162759,21.7089844 11.4869793,21.7057292 11.4609375,21.6992188 C11.4348957,21.6861979 11.4088543,21.669922 11.3828125,21.6503906 C11.3502603,21.6373697 11.3242188,21.6178387 11.3046875,21.5917969 L11.265625,21.5136719 C11.2526041,21.4811196 11.2460938,21.4485679 11.2460938,21.4160156 C11.2395833,21.1881499 11.2363281,20.9602876 11.2363281,20.7324219 C11.2298177,20.5045562 11.2265625,20.2766938 11.2265625,20.0488281 L11.2265625,20.0390625 C11.2265625,19.8828117 11.2298177,19.7233081 11.2363281,19.5605469 C11.2363281,19.4042961 11.2395833,19.2447925 11.2460938,19.0820312 C11.2460938,19.0364581 11.2493489,18.9876305 11.2558594,18.9355469 L11.2558594,18.7890625 C11.2623698,18.723958 11.2688802,18.6621097 11.2753906,18.6035156 C11.2753906,18.5384111 11.2786458,18.4765628 11.2851563,18.4179688 Z M16.4609375,20.7226562 C16.4739584,20.7356771 16.4804688,20.7454427 16.4804688,20.7519531 L16.5683594,20.8398438 C16.6464848,20.8984378 16.7278642,20.9440103 16.8125,20.9765625 C16.8971358,21.0156252 16.9850256,21.0449218 17.0761719,21.0644531 C17.1673182,21.0904949 17.2584631,21.1132812 17.3496094,21.1328125 C17.4407557,21.1458334 17.5351558,21.1555989 17.6328125,21.1621094 L17.6914062,21.1621094 C17.7109376,21.1686198 17.7304687,21.1686198 17.75,21.1621094 C17.7695313,21.1621094 17.7858072,21.1588542 17.7988281,21.1523438 C17.8183595,21.1458333 17.8346354,21.1393229 17.8476562,21.1328125 L17.9453125,21.09375 C17.9778647,21.0742187 18.0071613,21.0546876 18.0332031,21.0351562 C18.046224,21.0286458 18.0624999,21.0188803 18.0820312,21.0058594 C18.0950521,20.9928385 18.111328,20.9830729 18.1308594,20.9765625 C18.1503907,20.9570312 18.1764321,20.9407553 18.2089844,20.9277344 C18.2415366,20.9147135 18.2708332,20.9082031 18.296875,20.9082031 C18.3294272,20.9082031 18.361979,20.9114583 18.3945312,20.9179688 C18.4270835,20.9309896 18.4563801,20.9440104 18.4824219,20.9570312 C18.5084637,20.9765626 18.5312499,20.9993488 18.5507812,21.0253906 C18.5703126,21.0514324 18.5833333,21.0774738 18.5898438,21.1035156 C18.6028646,21.1360679 18.609375,21.1686196 18.609375,21.2011719 L18.609375,21.2109375 C18.609375,21.2369793 18.6061198,21.2630207 18.5996094,21.2890625 C18.5930989,21.3216147 18.5800782,21.3509113 18.5605469,21.3769531 C18.5410155,21.4029949 18.5182293,21.4257812 18.4921875,21.4453125 C18.4531248,21.4778647 18.420573,21.500651 18.3945312,21.5136719 L18.3066406,21.5722656 C18.2675779,21.5983074 18.231771,21.6210937 18.1992188,21.640625 C18.1601561,21.6601563 18.1178388,21.6764322 18.0722656,21.6894531 C18.0332029,21.7089845 17.9941408,21.7220052 17.9550781,21.7285156 C17.909505,21.7415365 17.8671877,21.7513021 17.828125,21.7578125 C17.7890623,21.7643229 17.7532554,21.7675781 17.7207031,21.7675781 L17.6132812,21.7675781 C17.4960932,21.7610677 17.382162,21.7447918 17.2714844,21.71875 C17.1542963,21.6992187 17.0403651,21.6764324 16.9296875,21.6503906 C16.8320308,21.6308593 16.7376307,21.6015627 16.6464844,21.5625 C16.5553381,21.5299478 16.4674483,21.4876305 16.3828125,21.4355469 L16.2851562,21.3769531 C16.2591145,21.3509113 16.2298179,21.3281251 16.1972656,21.3085938 C16.1647134,21.2760415 16.1289064,21.2434897 16.0898438,21.2109375 C16.0572915,21.1783853 16.0247397,21.1425783 15.9921875,21.1035156 C15.9466144,21.0449216 15.9075522,20.9863284 15.875,20.9277344 L15.7773438,20.7324219 C15.6992184,20.5305979 15.6569011,20.3417978 15.6503906,20.1660156 C15.6438802,20.0878902 15.640625,20.009766 15.640625,19.9316406 C15.640625,19.8404943 15.6438802,19.7526046 15.6503906,19.6679688 L15.6503906,19.609375 C15.6569011,19.5898437 15.6601562,19.5703126 15.6601562,19.5507812 L15.6992188,19.3164062 C15.7187501,19.2317704 15.7415363,19.150391 15.7675781,19.0722656 C15.7871095,19.0266925 15.8033854,18.98112 15.8164062,18.9355469 C15.8359376,18.8899737 15.8587238,18.8444013 15.8847656,18.7988281 L15.9433594,18.7011719 L16.0214844,18.6035156 C16.0410157,18.5774738 16.063802,18.5514324 16.0898438,18.5253906 L16.1679688,18.4472656 C16.3046882,18.3300775 16.4381504,18.245443 16.5683594,18.1933594 C16.6985684,18.1477862 16.7832029,18.1184896 16.8222656,18.1054688 C16.8287761,18.1054688 16.8385416,18.1022136 16.8515625,18.0957031 C16.8645834,18.0957031 16.8776041,18.0924479 16.890625,18.0859375 C16.949219,18.0729166 17.0078122,18.0631511 17.0664062,18.0566406 C17.1250003,18.0501302 17.1868486,18.046875 17.2519531,18.046875 L17.4277344,18.046875 C17.4863284,18.046875 17.5416664,18.0533854 17.59375,18.0664062 C17.6263022,18.0794271 17.658854,18.0891927 17.6914062,18.0957031 C17.717448,18.108724 17.7467446,18.1217447 17.7792969,18.1347656 C17.9290372,18.2194015 18.0592442,18.3300774 18.1699219,18.4667969 C18.2805995,18.5970059 18.3782548,18.7337232 18.4628906,18.8769531 C18.4759115,18.9029949 18.4856771,18.9192708 18.4921875,18.9257812 C18.4921875,18.9322917 18.501953,18.9615883 18.5214844,19.0136719 C18.5279948,19.0397137 18.53125,19.0657551 18.53125,19.0917969 C18.53125,19.1178387 18.5279948,19.1438801 18.5214844,19.1699219 C18.5149739,19.2610682 18.4889325,19.3424476 18.4433594,19.4140625 C18.4042967,19.4921879 18.3587242,19.5670569 18.3066406,19.6386719 C18.2480466,19.7167973 18.1861982,19.7916663 18.1210938,19.8632812 C18.0559893,19.9414066 17.9876306,20.0130205 17.9160156,20.078125 C17.8704425,20.1171877 17.8281252,20.1529946 17.7890625,20.1855469 C17.7434894,20.2180991 17.6946617,20.2506509 17.6425781,20.2832031 C17.5579423,20.3352867 17.4733077,20.3841144 17.3886719,20.4296875 C17.2975256,20.4752606 17.2031255,20.5175779 17.1054688,20.5566406 C17.007812,20.5891929 16.9101567,20.6184895 16.8125,20.6445312 C16.7083328,20.670573 16.6074224,20.6966145 16.5097656,20.7226562 L16.4609375,20.7226562 Z M17.9160156,19.1308594 C17.863932,19.052734 17.8053389,18.9713546 17.7402344,18.8867188 C17.6816403,18.8020829 17.6067713,18.7337242 17.515625,18.6816406 C17.5026041,18.6751302 17.4928386,18.6686198 17.4863281,18.6621094 C17.4733072,18.6555989 17.4635417,18.6523438 17.4570312,18.6523438 C17.4440104,18.6523438 17.4309896,18.6490886 17.4179688,18.6425781 L17.2714844,18.6425781 C17.2324217,18.6425781 17.1933596,18.6458333 17.1542969,18.6523438 L17.0371094,18.671875 L17.0078125,18.671875 C17.0013021,18.6783854 16.9947917,18.6816406 16.9882812,18.6816406 C16.955729,18.6881511 16.8971358,18.7076821 16.8125,18.7402344 C16.7343746,18.7727866 16.6529952,18.8248694 16.5683594,18.8964844 L16.4902344,18.9746094 C16.4772135,18.9941407 16.4641928,19.0104166 16.4511719,19.0234375 C16.438151,19.0429688 16.4283854,19.0624999 16.421875,19.0820312 C16.4023437,19.108073 16.3860678,19.1373696 16.3730469,19.1699219 C16.360026,19.1959637 16.3502604,19.2252603 16.34375,19.2578125 C16.2916664,19.4010424 16.2591146,19.5475253 16.2460938,19.6972656 C16.2395833,19.7688806 16.2363281,19.8404944 16.2363281,19.9121094 C16.2363281,19.9902348 16.2395833,20.0716142 16.2460938,20.15625 C16.3763027,20.1302082 16.5032546,20.1041668 16.6269531,20.078125 C16.7506517,20.0455728 16.8710932,20.0065106 16.9882812,19.9609375 C17.0468753,19.9348957 17.1022133,19.9088543 17.1542969,19.8828125 C17.2063805,19.8502603 17.2584633,19.8209637 17.3105469,19.7949219 L17.4082031,19.7167969 C17.4407554,19.6972655 17.470052,19.6744793 17.4960938,19.6484375 C17.5611982,19.5898435 17.6165362,19.5312503 17.6621094,19.4726562 L17.8183594,19.296875 C17.8248698,19.2838541 17.8313802,19.2740886 17.8378906,19.2675781 C17.8444011,19.2545572 17.8509114,19.2447917 17.8574219,19.2382812 C17.8704428,19.2187499 17.8802083,19.202474 17.8867188,19.1894531 C17.8932292,19.1764322 17.9029947,19.1634115 17.9160156,19.1503906 L17.9160156,19.1308594 Z"/>
    <path fill="#000" d="M6.02308599,6.71358973 C6.02320368,6.71335696 6.02332085,6.71312392 6.0234375,6.71289062 C6.0364584,6.68033838 6.04622393,6.6510418 6.05273438,6.625 C6.07877617,6.52734326 6.09505205,6.45898457 6.1015625,6.41992188 C6.10807295,6.37434873 6.12434883,6.31575557 6.15039062,6.24414062 C6.18945332,6.12044209 6.23828096,6.00000059 6.296875,5.8828125 C6.34895859,5.77213486 6.41080693,5.66145889 6.48242188,5.55078125 C6.56054727,5.44010361 6.64192666,5.33268281 6.7265625,5.22851562 C6.81770879,5.12434844 6.91536406,5.02669316 7.01953125,4.93554688 L7.13671875,4.85742188 C7.17578145,4.83138008 7.21484355,4.80859385 7.25390625,4.7890625 C7.2734376,4.78255205 7.29622383,4.7760417 7.32226562,4.76953125 C7.34179697,4.7630208 7.3645832,4.75976562 7.390625,4.75976562 C7.4166668,4.75976562 7.4427082,4.7630208 7.46875,4.76953125 C7.4947918,4.7760417 7.51757803,4.78255205 7.53710938,4.7890625 L7.55664062,4.80859375 C7.56315107,4.8151042 7.56966143,4.81835938 7.57617188,4.81835938 C7.60872412,4.85091162 7.6380207,4.88346338 7.6640625,4.91601562 C7.6901043,4.95507832 7.71289053,4.99088525 7.73242188,5.0234375 C7.73893232,5.04296885 7.74869785,5.05924473 7.76171875,5.07226562 L7.78125,5.13085938 C7.80078135,5.17643252 7.81380205,5.22851533 7.8203125,5.28710938 C7.82682295,5.33919297 7.83658848,5.45312412 7.84960938,5.62890625 C7.85611982,5.73307344 7.859375,5.83723906 7.859375,5.94140625 L7.859375,6.25390625 C7.85286455,6.36458389 7.84960938,6.47200469 7.84960938,6.57617188 C7.84309893,6.68033906 7.83658857,6.78775986 7.83007812,6.8984375 L7.81054688,7.14257812 L7.79101562,7.43554688 C7.78450518,7.46158867 7.78776035,7.49088525 7.80078125,7.5234375 C7.8072917,7.55598975 7.81705723,7.58528633 7.83007812,7.61132812 C7.84960947,7.63736992 7.86914053,7.66015615 7.88867188,7.6796875 C7.91471367,7.69921885 7.94401025,7.71549473 7.9765625,7.72851562 C8.0026043,7.74153652 8.03190088,7.74804688 8.06445312,7.74804688 C8.07096357,7.75455732 8.07747393,7.7578125 8.08398438,7.7578125 C8.11002617,7.7578125 8.13606758,7.75455732 8.16210938,7.74804688 C8.18815117,7.74153643 8.21419258,7.72851572 8.24023438,7.70898438 C8.27278662,7.68945303 8.29882803,7.66992197 8.31835938,7.65039062 C8.33789072,7.62434883 8.3541666,7.59830742 8.3671875,7.57226562 C8.3802084,7.53971338 8.38671875,7.50716162 8.38671875,7.47460938 C8.3932292,7.42252578 8.39648438,7.37369814 8.39648438,7.328125 C8.40299482,7.27604141 8.40625,7.22395859 8.40625,7.171875 C8.41276045,7.1328123 8.41601562,7.0937502 8.41601562,7.0546875 C8.42252607,7.0156248 8.42578125,6.9765627 8.42578125,6.9375 C8.4322917,6.82031191 8.43880205,6.70638076 8.4453125,6.59570312 L8.46484375,6.26367188 L8.46484375,5.921875 C8.4583333,5.81119736 8.45182295,5.69726621 8.4453125,5.58007812 C8.43880205,5.47591094 8.42903652,5.36523496 8.41601562,5.24804688 C8.40299473,5.13085879 8.37695332,5.01692764 8.33789062,4.90625 C8.32486973,4.87369775 8.31184902,4.84440117 8.29882812,4.81835938 C8.28580723,4.78580713 8.27278652,4.75651055 8.25976562,4.73046875 C8.23372383,4.68489561 8.20768242,4.64257832 8.18164062,4.60351562 C8.15559883,4.56445293 8.12630225,4.52539082 8.09375,4.48632812 L8.015625,4.40820312 C7.9895832,4.38216133 7.9635418,4.3593751 7.9375,4.33984375 C7.88541641,4.30078105 7.83007842,4.2682293 7.77148438,4.2421875 C7.71289033,4.2161457 7.65104199,4.19661465 7.5859375,4.18359375 C7.5729166,4.1770833 7.55664072,4.17382812 7.53710938,4.17382812 C7.51757803,4.16731768 7.49804697,4.1640625 7.47851562,4.1640625 L7.4296875,4.1640625 C7.33203076,4.1640625 7.23112031,4.1770832 7.12695312,4.203125 C6.99674414,4.2291668 6.83073018,4.32356689 6.62890625,4.48632812 C6.54427041,4.55794307 6.46289102,4.63281211 6.38476562,4.7109375 C6.31315068,4.78906289 6.24153682,4.87369746 6.16992188,4.96484375 C6.12434873,5.01692734 6.0885418,5.05924463 6.0625,5.09179688 C6.04836487,5.12006714 6.02741012,5.15345193 5.99963538,5.19195179 L5.99414062,4.99414062 C5.98763018,4.75976445 5.97786465,4.5253918 5.96484375,4.29101562 C5.96484375,4.26497383 5.9583334,4.23567725 5.9453125,4.203125 C5.9322916,4.17057275 5.91601572,4.14453135 5.89648438,4.125 C5.88346348,4.0989582 5.86067725,4.07617197 5.828125,4.05664062 C5.8020832,4.03710928 5.7760418,4.02408857 5.75,4.01757812 C5.7239582,4.01106768 5.69466162,4.0078125 5.66210938,4.0078125 L5.65234375,4.0078125 C5.6197915,4.0078125 5.59049492,4.01432285 5.56445312,4.02734375 C5.53190088,4.04036465 5.5026043,4.05664053 5.4765625,4.07617188 C5.4505207,4.09570322 5.43098965,4.11848945 5.41796875,4.14453125 C5.3984374,4.17057305 5.3854167,4.19986963 5.37890625,4.23242188 C5.3723958,4.25846367 5.36914062,4.28450508 5.36914062,4.31054688 L5.36914062,4.3203125 C5.37565107,4.55468867 5.3854166,4.78906133 5.3984375,5.0234375 C5.40494795,5.25130322 5.4114583,5.4824207 5.41796875,5.71679688 C5.4244792,5.87955811 5.42773438,6.03906172 5.42773438,6.1953125 L5.42773438,6.67382812 L5.40820312,7.00585938 L5.38867188,7.38671875 C5.38867188,7.419271 5.39192705,7.45182275 5.3984375,7.484375 C5.40494795,7.5104168 5.41796865,7.5364582 5.4375,7.5625 C5.4505209,7.5885418 5.47005195,7.6145832 5.49609375,7.640625 C5.52213555,7.66015635 5.54817695,7.67643223 5.57421875,7.68945312 L5.671875,7.70898438 L5.69140625,7.70898438 C5.71744805,7.70898438 5.74023428,7.7057292 5.75976562,7.69921875 C5.79231787,7.6927083 5.82161445,7.6796876 5.84765625,7.66015625 C5.87369805,7.6406249 5.89648428,7.62109385 5.91601562,7.6015625 C5.94205742,7.5755207 5.9583333,7.5494793 5.96484375,7.5234375 C5.97786465,7.49088525 5.98763018,7.4583335 5.99414062,7.42578125 C5.99414062,7.36067676 5.9973958,7.29231807 6.00390625,7.22070312 C6.00390625,7.14908818 6.00716143,7.08072949 6.01367188,7.015625 L6.01367188,6.84960938 C6.01894713,6.80213204 6.02208515,6.75679245 6.02308599,6.71358973 Z M2.00976562,4.7109375 L2.02929688,4.61328125 C2.04231777,4.580729 2.05859365,4.5546876 2.078125,4.53515625 C2.09765635,4.50911445 2.12044258,4.48632822 2.14648438,4.46679688 C2.17252617,4.44726553 2.20182275,4.43424482 2.234375,4.42773438 C2.2604168,4.42122393 2.2864582,4.41796875 2.3125,4.41796875 L2.32226562,4.41796875 C2.35481787,4.41796875 2.38736963,4.4244791 2.41992188,4.4375 C2.44596367,4.4505209 2.47200508,4.46679678 2.49804688,4.48632812 C2.52408867,4.50585947 2.5468749,4.5286457 2.56640625,4.5546875 L2.60546875,4.6328125 C2.6119792,4.66536475 2.61523438,4.6979165 2.61523438,4.73046875 C2.60872393,4.91927178 2.60546875,5.10807197 2.60546875,5.296875 C2.60546875,5.47916758 2.6119791,5.6647126 2.625,5.85351562 C2.6380209,5.97721416 2.65429678,6.10091084 2.67382812,6.22460938 C2.69986992,6.34179746 2.73567686,6.45898379 2.78125,6.57617188 C2.7942709,6.60872412 2.8072916,6.6380207 2.8203125,6.6640625 C2.8333334,6.69661475 2.84960928,6.72591133 2.86914062,6.75195312 L2.91796875,6.80078125 L3.015625,6.87890625 C3.0416668,6.90494805 3.07096338,6.93098945 3.10351562,6.95703125 L3.18164062,6.99609375 C3.20117197,7.0156251 3.2239582,7.03190098 3.25,7.04492188 C3.30859404,7.07096367 3.37369756,7.0937499 3.4453125,7.11328125 C3.51041699,7.1328126 3.57552051,7.14257812 3.640625,7.14257812 C3.69270859,7.14257812 3.74479141,7.13606777 3.796875,7.12304688 C3.84244814,7.11002598 3.88802061,7.09049492 3.93359375,7.06445312 C3.95963555,7.05143223 3.98242178,7.03515635 4.00195312,7.015625 C4.02148447,6.99609365 4.0442707,6.97981777 4.0703125,6.96679688 C4.1093752,6.92122373 4.14518213,6.87890645 4.17773438,6.83984375 C4.21679707,6.79427061 4.24934883,6.74544297 4.27539062,6.69335938 C4.30794287,6.64127578 4.3307291,6.58919297 4.34375,6.53710938 C4.36328135,6.48502578 4.37955723,6.42968779 4.39257812,6.37109375 C4.44466172,6.10416533 4.46744795,5.83398574 4.4609375,5.56054688 C4.45442705,5.29361846 4.44466152,5.02343887 4.43164062,4.75 C4.43164062,4.71744775 4.4348958,4.68815117 4.44140625,4.66210938 C4.4479167,4.62955713 4.4609374,4.60026055 4.48046875,4.57421875 C4.49348965,4.54817695 4.5130207,4.52213555 4.5390625,4.49609375 C4.5651043,4.4765624 4.5911457,4.46028652 4.6171875,4.44726562 L4.71484375,4.42773438 C4.747396,4.42773438 4.77669258,4.43098955 4.80273438,4.4375 C4.83528662,4.44401045 4.8645832,4.45703115 4.890625,4.4765625 C4.9166668,4.4895834 4.93945303,4.50911445 4.95898438,4.53515625 C4.98502617,4.56119805 5.00130205,4.58723945 5.0078125,4.61328125 C5.0208334,4.6458335 5.03059893,4.67838525 5.03710938,4.7109375 C5.03710938,4.81510469 5.04036455,4.91927031 5.046875,5.0234375 L5.06640625,5.3359375 L5.06640625,5.52148438 C5.06640625,5.65169336 5.06315107,5.78190039 5.05664062,5.91210938 C5.04361973,6.10742285 5.01757832,6.29947822 4.97851562,6.48828125 C4.95898428,6.57942754 4.93294287,6.67057246 4.90039062,6.76171875 C4.87434883,6.85286504 4.83528672,6.93749961 4.78320312,7.015625 C4.74414043,7.08723994 4.69856797,7.15234346 4.64648438,7.2109375 C4.60091123,7.26953154 4.54882842,7.32812471 4.49023438,7.38671875 C4.45768213,7.419271 4.4218752,7.44856758 4.3828125,7.47460938 C4.3437498,7.50716162 4.3046877,7.5364582 4.265625,7.5625 C4.16796826,7.62109404 4.06705781,7.6666665 3.96289062,7.69921875 C3.85872344,7.72526055 3.75455781,7.73828125 3.65039062,7.73828125 L3.63085938,7.73828125 C3.52018174,7.73828125 3.40950576,7.72526055 3.29882812,7.69921875 C3.19466094,7.67317695 3.09375049,7.63411484 2.99609375,7.58203125 L2.87890625,7.5234375 C2.846354,7.4973957 2.81054707,7.47460947 2.77148438,7.45507812 C2.69986943,7.40299453 2.63151074,7.34765654 2.56640625,7.2890625 C2.49479131,7.23046846 2.43294297,7.16536494 2.38085938,7.09375 C2.34830713,7.0546873 2.32226572,7.01237002 2.30273438,6.96679688 C2.27669258,6.92122373 2.25065117,6.87239609 2.22460938,6.8203125 C2.12695264,6.57291543 2.06835947,6.31575654 2.04882812,6.04882812 C2.02278633,5.78189971 2.00651045,5.51823047 2,5.2578125 C2,5.16666621 2.00325518,5.07552129 2.00976562,4.984375 L2.00976562,4.7109375 Z"/>
    <path fill="#696969" d="M11.8418125,7.36626049 C11.8294083,7.37310917 11.8170333,7.37992858 11.8046875,7.38671875 C11.6744785,7.45833369 11.5410163,7.52994756 11.4042969,7.6015625 C11.3717446,7.6145834 11.3457032,7.62434893 11.3261719,7.63085938 C11.3066405,7.63736982 11.2805991,7.64713535 11.2480469,7.66015625 C11.2154946,7.67317715 11.1796877,7.68619785 11.140625,7.69921875 C11.1080728,7.7057292 11.0722658,7.71549473 11.0332031,7.72851562 C10.9420568,7.74804697 10.8509119,7.76106768 10.7597656,7.76757812 C10.6686193,7.78059902 10.5807296,7.78710938 10.4960938,7.78710938 L10.4765625,7.78710938 C10.3723953,7.78059893 10.2714849,7.76757822 10.1738281,7.74804688 C10.0761714,7.72851553 9.97851611,7.69921895 9.88085938,7.66015625 L9.74414062,7.6015625 C9.69856748,7.58203115 9.6562502,7.55924492 9.6171875,7.53320312 C9.58463525,7.51367178 9.55533867,7.49414072 9.52929688,7.47460938 L9.45117188,7.41601562 C9.2688793,7.25976484 9.11914121,7.077475 9.00195312,6.86914062 C8.88476504,6.6542958 8.809896,6.43294385 8.77734375,6.20507812 C8.7708333,6.16601543 8.76757812,6.1302085 8.76757812,6.09765625 L8.76757812,5.99023438 C8.76757812,5.93815078 8.7708333,5.88932314 8.77734375,5.84375 C8.7838542,5.79166641 8.79361973,5.74283877 8.80664062,5.69726562 C8.85221377,5.51497305 8.91406211,5.35872461 8.9921875,5.22851562 C9.07031289,5.09179619 9.13216123,4.99088574 9.17773438,4.92578125 C9.22330752,4.85416631 9.27213516,4.78580762 9.32421875,4.72070312 C9.37630234,4.66210908 9.43164033,4.60351592 9.49023438,4.54492188 L9.54882812,4.48632812 C9.56184902,4.47330723 9.58138008,4.45703135 9.60742188,4.4375 C9.63346367,4.41796865 9.65950508,4.40169277 9.68554688,4.38867188 L9.76367188,4.33007812 C9.91992266,4.25195273 10.0631504,4.19661475 10.1933594,4.1640625 C10.3235684,4.13151025 10.4212236,4.1119792 10.4863281,4.10546875 C10.5123699,4.0989583 10.5384113,4.09570312 10.5644531,4.09570312 L10.6328125,4.09570312 C10.7239588,4.10221357 10.8118485,4.11523428 10.8964844,4.13476562 C10.9876307,4.16080742 11.0755204,4.18684883 11.1601562,4.21289062 L11.3554688,4.29101562 C11.4205732,4.31705742 11.4824216,4.34960918 11.5410156,4.38867188 C11.5865888,4.42122412 11.6256509,4.45703105 11.6582031,4.49609375 C11.676993,4.51488365 11.6950296,4.53367342 11.712313,4.55246318 C11.7087918,4.38155929 11.7070312,4.20977515 11.7070312,4.03710938 C11.7070312,3.57486748 11.7167968,3.1158877 11.7363281,2.66015625 C11.749349,2.19791436 11.7721353,1.73567939 11.8046875,1.2734375 C11.8046875,1.24088525 11.8111979,1.21158867 11.8242188,1.18554688 C11.8372396,1.15299463 11.8535155,1.12369805 11.8730469,1.09765625 C11.8925782,1.0781249 11.9186196,1.05859385 11.9511719,1.0390625 C11.9772137,1.0260416 12.0065103,1.01627607 12.0390625,1.00976562 C12.0585938,1.00325518 12.0813801,1 12.1074219,1 L12.1269531,1 C12.1595054,1 12.188802,1.00651035 12.2148438,1.01953125 C12.247396,1.03255215 12.2766926,1.04882803 12.3027344,1.06835938 C12.3222657,1.08789072 12.3417968,1.11067695 12.3613281,1.13671875 C12.374349,1.169271 12.3873697,1.19856758 12.4003906,1.22460938 C12.4069011,1.25716162 12.4069011,1.28971338 12.4003906,1.32226562 C12.3743488,1.77799707 12.3515626,2.2304665 12.3320312,2.6796875 C12.3124999,3.13541895 12.3027344,3.59114355 12.3027344,4.046875 C12.3092448,4.36588701 12.3157552,4.68814941 12.3222656,5.01367187 C12.3287761,5.33919434 12.3385416,5.66471191 12.3515625,5.99023437 L12.3710938,6.30273437 C12.3766477,6.39715154 12.3822016,6.48919854 12.3877555,6.57887738 C12.3919807,6.60081613 12.3961925,6.62270075 12.4003906,6.64453125 L12.4003906,6.68359375 C12.4069011,6.7031251 12.4069011,6.72265615 12.4003906,6.7421875 C12.3996439,6.745921 12.3988544,6.74961168 12.3980221,6.75325953 C12.4038419,6.84248968 12.4111418,6.93319964 12.4199219,7.02539062 C12.4264323,7.15559961 12.4361979,7.28580664 12.4492188,7.41601562 L12.4492188,7.43554687 C12.4492188,7.46158867 12.4459636,7.48763008 12.4394531,7.51367187 C12.4329427,7.53971367 12.419922,7.56901025 12.4003906,7.6015625 C12.3873697,7.6276043 12.3678387,7.65039053 12.3417969,7.66992187 C12.3157551,7.68945322 12.2897137,7.7057291 12.2636719,7.71875 C12.2311196,7.7317709 12.201823,7.73828125 12.1757812,7.73828125 L12.1464844,7.73828125 C12.126953,7.73828125 12.1041668,7.73502607 12.078125,7.72851562 C12.0455728,7.72200518 12.0162762,7.71223965 11.9902344,7.69921875 C11.9641926,7.6796874 11.9414063,7.66015635 11.921875,7.640625 C11.9023437,7.6145832 11.8860678,7.58528662 11.8730469,7.55273437 C11.860026,7.52669258 11.8502604,7.497396 11.84375,7.46484375 C11.84375,7.43004501 11.8431042,7.39718398 11.8418125,7.36626049 Z M11.7931199,6.70890882 C11.7898356,6.67611447 11.7871811,6.65465533 11.7851562,6.64453125 C11.7851562,6.63737475 11.7846843,6.62156506 11.7837403,6.59710212 C11.7527345,6.43820477 11.7239098,6.28148949 11.6972656,6.12695312 C11.6582029,5.93163965 11.6093753,5.73958428 11.5507812,5.55078125 C11.518229,5.45312451 11.4824221,5.35546924 11.4433594,5.2578125 C11.4042967,5.16666621 11.355469,5.07552129 11.296875,4.984375 C11.2838541,4.9713541 11.2675782,4.95182305 11.2480469,4.92578125 C11.235026,4.9062499 11.2154949,4.88997402 11.1894531,4.87695312 C11.1829427,4.87044268 11.1731771,4.8671875 11.1601562,4.8671875 C11.1536458,4.86067705 11.1438803,4.8541667 11.1308594,4.84765625 C11.0917967,4.83463535 11.0657553,4.82486982 11.0527344,4.81835938 C11.0462239,4.81184893 11.0169273,4.79882822 10.9648438,4.77929688 L10.828125,4.74023438 C10.7760414,4.72721348 10.7239586,4.71744795 10.671875,4.7109375 C10.6458332,4.70442705 10.6165366,4.70117188 10.5839844,4.70117188 L10.5742188,4.70117188 C10.548177,4.70117188 10.5221355,4.70442705 10.4960938,4.7109375 C10.4179684,4.7239584 10.3463545,4.74023428 10.28125,4.75976562 C10.2096351,4.78580742 10.1412764,4.815104 10.0761719,4.84765625 C10.063151,4.8541667 10.0468751,4.86393223 10.0273438,4.87695312 C10.0143229,4.88346357 10.0013021,4.8932291 9.98828125,4.90625 C9.97526035,4.91276045 9.96223965,4.92252598 9.94921875,4.93554688 L9.91992188,4.96484375 C9.87434873,5.01041689 9.83203145,5.05598936 9.79296875,5.1015625 C9.75390605,5.14713564 9.71484395,5.19596328 9.67578125,5.24804688 C9.59114541,5.38476631 9.52604189,5.49544229 9.48046875,5.58007812 C9.44140605,5.67122441 9.41210947,5.75260381 9.39257812,5.82421875 C9.38606768,5.856771 9.37955732,5.88606758 9.37304688,5.91210938 C9.36653643,5.94466162 9.36328125,5.9739582 9.36328125,6 L9.36328125,6.05859375 C9.36328125,6.0781251 9.36653643,6.09765615 9.37304688,6.1171875 C9.37955732,6.16927109 9.38932285,6.22135391 9.40234375,6.2734375 C9.41536465,6.31901064 9.43164053,6.36458311 9.45117188,6.41015625 C9.49023457,6.49479209 9.53255186,6.57617148 9.578125,6.65429688 C9.62369814,6.73242227 9.67903613,6.80403613 9.74414062,6.86914062 C9.75716152,6.88867197 9.77018223,6.90169268 9.78320312,6.90820312 C9.78971357,6.91471357 9.80273428,6.9244791 9.82226562,6.9375 L9.86132812,6.9765625 C9.88085947,6.9895834 9.89713535,7.0026041 9.91015625,7.015625 C9.9427085,7.0286459 9.97200508,7.0416666 9.99804688,7.0546875 C10.0305991,7.07421885 10.0631509,7.09049473 10.0957031,7.10351562 C10.1542972,7.12304697 10.2161455,7.14257803 10.28125,7.16210938 C10.3463545,7.17513027 10.411458,7.18164062 10.4765625,7.18164062 L10.4960938,7.18164062 C10.5611982,7.18164062 10.6230466,7.17838545 10.6816406,7.171875 C10.7532556,7.16536455 10.8216143,7.15559902 10.8867188,7.14257812 L10.9648438,7.12304688 C10.9843751,7.11653643 11.0071613,7.11002607 11.0332031,7.10351562 C11.0527345,7.09700518 11.0690104,7.09049482 11.0820312,7.08398438 C11.1015626,7.07747393 11.1210937,7.0677084 11.140625,7.0546875 L11.375,6.9375 C11.4531254,6.8984373 11.5312496,6.85612002 11.609375,6.81054688 L11.7070312,6.75195312 L11.7931199,6.70890882 Z M13.4746094,6.72265625 C13.4876303,6.73567715 13.4941406,6.74544268 13.4941406,6.75195312 L13.5820312,6.83984375 C13.6601566,6.89843779 13.741536,6.94401025 13.8261719,6.9765625 C13.9108077,7.0156252 13.9986975,7.04492178 14.0898438,7.06445312 C14.18099,7.09049492 14.272135,7.11328115 14.3632812,7.1328125 C14.4544275,7.1458334 14.5488276,7.15559893 14.6464844,7.16210938 L14.7050781,7.16210938 C14.7246095,7.16861982 14.7441405,7.16861982 14.7636719,7.16210938 C14.7832032,7.16210938 14.7994791,7.1588542 14.8125,7.15234375 C14.8320313,7.1458333 14.8483072,7.13932295 14.8613281,7.1328125 L14.9589844,7.09375 C14.9915366,7.07421865 15.0208332,7.0546876 15.046875,7.03515625 C15.0598959,7.0286458 15.0761718,7.01888027 15.0957031,7.00585938 C15.108724,6.99283848 15.1249999,6.98307295 15.1445312,6.9765625 C15.1640626,6.95703115 15.190104,6.94075527 15.2226562,6.92773438 C15.2552085,6.91471348 15.2845051,6.90820312 15.3105469,6.90820312 C15.3430991,6.90820312 15.3756509,6.9114583 15.4082031,6.91796875 C15.4407554,6.93098965 15.470052,6.94401035 15.4960938,6.95703125 C15.5221355,6.9765626 15.5449218,6.99934883 15.5644531,7.02539062 C15.5839845,7.05143242 15.5970052,7.07747383 15.6035156,7.10351562 C15.6165365,7.13606787 15.6230469,7.16861963 15.6230469,7.20117188 L15.6230469,7.2109375 C15.6230469,7.2369793 15.6197917,7.2630207 15.6132812,7.2890625 C15.6067708,7.32161475 15.5937501,7.35091133 15.5742188,7.37695312 C15.5546874,7.40299492 15.5319012,7.42578115 15.5058594,7.4453125 C15.4667967,7.47786475 15.4342449,7.50065098 15.4082031,7.51367188 L15.3203125,7.57226562 C15.2812498,7.59830742 15.2454429,7.62109365 15.2128906,7.640625 C15.1738279,7.66015635 15.1315106,7.67643223 15.0859375,7.68945312 C15.0468748,7.70898447 15.0078127,7.72200518 14.96875,7.72851562 C14.9231769,7.74153652 14.8808596,7.75130205 14.8417969,7.7578125 C14.8027342,7.76432295 14.7669272,7.76757812 14.734375,7.76757812 L14.6269531,7.76757812 C14.509765,7.76106768 14.3958339,7.7447918 14.2851562,7.71875 C14.1679682,7.69921865 14.054037,7.67643242 13.9433594,7.65039062 C13.8457026,7.63085928 13.7513025,7.6015627 13.6601562,7.5625 C13.56901,7.52994775 13.4811202,7.48763047 13.3964844,7.43554688 L13.2988281,7.37695312 C13.2727863,7.35091133 13.2434897,7.3281251 13.2109375,7.30859375 C13.1783853,7.2760415 13.1425783,7.24348975 13.1035156,7.2109375 C13.0709634,7.17838525 13.0384116,7.14257832 13.0058594,7.10351562 C12.9602862,7.04492158 12.9212241,6.98632842 12.8886719,6.92773438 L12.7910156,6.73242188 C12.7128902,6.53059795 12.6705729,6.34179775 12.6640625,6.16601562 C12.6575521,6.08789023 12.6542969,6.00976602 12.6542969,5.93164062 C12.6542969,5.84049434 12.6575521,5.75260459 12.6640625,5.66796875 L12.6640625,5.609375 C12.6705729,5.58984365 12.6738281,5.5703126 12.6738281,5.55078125 L12.7128906,5.31640625 C12.732422,5.23177041 12.7552082,5.15039102 12.78125,5.07226562 C12.8007813,5.02669248 12.8170572,4.98112002 12.8300781,4.93554688 C12.8496095,4.88997373 12.8723957,4.84440127 12.8984375,4.79882812 L12.9570312,4.70117188 L13.0351562,4.60351562 C13.0546876,4.57747383 13.0774738,4.55143242 13.1035156,4.52539062 L13.1816406,4.44726562 C13.3183601,4.33007754 13.4518223,4.24544297 13.5820312,4.19335938 C13.7122402,4.14778623 13.7968748,4.11848965 13.8359375,4.10546875 C13.8424479,4.10546875 13.8522135,4.10221357 13.8652344,4.09570312 C13.8782553,4.09570312 13.891276,4.09244795 13.9042969,4.0859375 C13.9628909,4.0729166 14.0214841,4.06315107 14.0800781,4.05664062 C14.1386722,4.05013018 14.2005205,4.046875 14.265625,4.046875 L14.4414062,4.046875 C14.5000003,4.046875 14.5553383,4.05338535 14.6074219,4.06640625 C14.6399741,4.07942715 14.6725259,4.08919268 14.7050781,4.09570312 C14.7311199,4.10872402 14.7604165,4.12174473 14.7929688,4.13476562 C14.9427091,4.21940146 15.0729161,4.33007744 15.1835938,4.46679688 C15.2942714,4.59700586 15.3919267,4.73372324 15.4765625,4.87695312 C15.4895834,4.90299492 15.4993489,4.9192708 15.5058594,4.92578125 C15.5058594,4.9322917 15.5156249,4.96158828 15.5351562,5.01367188 C15.5416667,5.03971367 15.5449219,5.06575508 15.5449219,5.09179688 C15.5449219,5.11783867 15.5416667,5.14388008 15.5351562,5.16992188 C15.5286458,5.26106816 15.5026044,5.34244756 15.4570312,5.4140625 C15.4179686,5.49218789 15.3723961,5.56705693 15.3203125,5.63867188 C15.2617185,5.71679727 15.1998701,5.79166631 15.1347656,5.86328125 C15.0696611,5.94140664 15.0013024,6.01302051 14.9296875,6.078125 C14.8841144,6.1171877 14.8417971,6.15299463 14.8027344,6.18554688 C14.7571612,6.21809912 14.7083336,6.25065088 14.65625,6.28320312 C14.5716142,6.33528672 14.4869796,6.38411436 14.4023438,6.4296875 C14.3111975,6.47526064 14.2167974,6.51757793 14.1191406,6.55664062 C14.0214839,6.58919287 13.9238286,6.61848945 13.8261719,6.64453125 C13.7220047,6.67057305 13.6210942,6.69661445 13.5234375,6.72265625 L13.4746094,6.72265625 Z M14.9296875,5.13085938 C14.8776039,5.05273398 14.8190107,4.97135459 14.7539062,4.88671875 C14.6953122,4.80208291 14.6204432,4.73372422 14.5292969,4.68164062 C14.516276,4.67513018 14.5065104,4.66861982 14.5,4.66210938 C14.4869791,4.65559893 14.4772136,4.65234375 14.4707031,4.65234375 C14.4576822,4.65234375 14.4446615,4.64908857 14.4316406,4.64257812 L14.2851562,4.64257812 C14.2460936,4.64257812 14.2070314,4.6458333 14.1679688,4.65234375 L14.0507812,4.671875 L14.0214844,4.671875 C14.0149739,4.67838545 14.0084636,4.68164062 14.0019531,4.68164062 C13.9694009,4.68815107 13.9108077,4.70768213 13.8261719,4.74023438 C13.7480465,4.77278662 13.6666671,4.82486943 13.5820312,4.89648438 L13.5039062,4.97460938 C13.4908854,4.99414072 13.4778646,5.0104166 13.4648438,5.0234375 C13.4518229,5.04296885 13.4420573,5.0624999 13.4355469,5.08203125 C13.4160155,5.10807305 13.3997396,5.13736963 13.3867188,5.16992188 C13.3736979,5.19596367 13.3639323,5.22526025 13.3574219,5.2578125 C13.3053383,5.40104238 13.2727865,5.54752529 13.2597656,5.69726562 C13.2532552,5.76888057 13.25,5.84049443 13.25,5.91210938 C13.25,5.99023477 13.2532552,6.07161416 13.2597656,6.15625 C13.3899746,6.1302082 13.5169265,6.1041668 13.640625,6.078125 C13.7643235,6.04557275 13.884765,6.00651064 14.0019531,5.9609375 C14.0605472,5.9348957 14.1158852,5.9088543 14.1679688,5.8828125 C14.2200523,5.85026025 14.2721352,5.82096367 14.3242188,5.79492188 L14.421875,5.71679688 C14.4544272,5.69726553 14.4837238,5.6744793 14.5097656,5.6484375 C14.5748701,5.58984346 14.6302081,5.53125029 14.6757812,5.47265625 L14.8320312,5.296875 C14.8385417,5.2838541 14.8450521,5.27408857 14.8515625,5.26757812 C14.8580729,5.25455723 14.8645833,5.2447917 14.8710938,5.23828125 C14.8841146,5.2187499 14.8938802,5.20247402 14.9003906,5.18945312 C14.9069011,5.17643223 14.9166666,5.16341152 14.9296875,5.15039062 L14.9296875,5.13085938 Z"/>
  </g>
</svg>
